<svg xmlns="http://www.w3.org/2000/svg" xmlns:xlink="http://www.w3.org/1999/xlink" version="1.1" id="Layer_1" x="0px" y="0px" viewBox="0 0 500 500" style="enable-background:new 0 0 500 500;" xml:space="preserve" class="style-svg svg image-fluid replaced-svg svg-replaced-0" width="500"  height="500" >
<g fill="#E60012">
	<path d="M239.33,47.84c7.64,0,15.28,0,22.92,0c0.11,0.1,0.22,0.28,0.34,0.3c3.07,0.36,6.18,0.56,9.22,1.09   c4.97,0.87,9.99,1.66,14.84,3.01c5.75,1.61,11.38,3.68,16.99,5.73c7.74,2.83,14.91,6.81,21.86,11.2   c6.55,4.14,12.86,8.62,18.41,14.05c5.06,4.96,10.21,9.87,14.79,15.26c3.98,4.68,7.42,9.86,10.75,15.04   c5.29,8.24,9.55,17.03,12.78,26.28c2.28,6.53,4.38,13.13,5.41,20c0.95,6.27,2.31,12.54,2.56,18.84c0.33,8.29,0.69,16.65-0.86,24.92   c-0.9,4.81-1.3,9.74-2.46,14.48c-1.56,6.38-3.28,12.77-5.58,18.91c-2.22,5.89-5.13,11.54-8,17.17c-2.74,5.39-5.78,10.62-8.76,15.89   c-3.41,6.04-6.89,12.03-10.33,18.06c-2.54,4.45-5.04,8.92-7.58,13.36c-2.84,4.97-5.72,9.91-8.57,14.88   c-2.77,4.82-5.52,9.65-8.29,14.47c-3.29,5.72-6.61,11.44-9.9,17.16c-2.47,4.3-4.89,8.62-7.36,12.91   c-3.24,5.63-6.5,11.24-9.74,16.87c-3.16,5.49-6.28,10.99-9.44,16.47c-3.16,5.48-6.37,10.94-9.52,16.43   c-2.9,5.06-5.74,10.16-8.64,15.22c-3.23,5.63-6.58,11.2-9.74,16.87c-3.37,6.05-8.1,9.69-15.31,9.41c-5.58-0.22-9.84-2.77-12.68-7.5   c-3.23-5.38-6.22-10.9-9.36-16.33c-4.34-7.52-8.75-15-13.07-22.53c-4.3-7.49-8.51-15.05-12.81-22.54   c-4.99-8.69-10.06-17.33-15.06-26.01c-3.21-5.58-6.33-11.21-9.53-16.8c-4.13-7.21-8.33-14.38-12.46-21.59   c-4.19-7.31-8.32-14.65-12.51-21.95c-5.48-9.55-11.11-19.01-16.45-28.63c-4.6-8.28-8.97-16.69-13.25-25.14   c-1.7-3.37-3.08-6.94-4.24-10.54c-2.36-7.37-4.57-14.81-5.47-22.54c-0.6-5.16-1.11-10.34-1.68-15.5c-0.05-0.46-0.22-0.9-0.33-1.35   c0-3.93,0-7.87,0-11.8c0.11-0.23,0.31-0.45,0.33-0.68c0.24-3.21,0.33-6.44,0.72-9.64c0.57-4.59,1.08-9.22,2.1-13.72   c1.71-7.48,3.94-14.82,6.81-21.98c3.56-8.87,7.95-17.27,13.2-25.22c3.99-6.05,8.26-11.91,13.4-17.05   c4.98-4.98,9.92-10.05,15.33-14.54c4.81-3.99,10.03-7.58,15.43-10.74c6.2-3.63,12.65-6.92,19.26-9.76   c5.67-2.43,11.61-4.36,17.59-5.89c6.21-1.6,12.61-2.47,18.93-3.63C235.99,48.23,237.66,48.07,239.33,47.84z M188.64,202.08   c-0.49,13.67,7.58,29.59,16.76,39.25c11.2,11.79,24.95,18.51,41.17,19.58c18.66,1.23,34.89-4.87,48.19-17.97   c11.37-11.2,17.54-25.09,18.32-41.03c0.83-17.04-4.53-32.15-16.02-44.83c-11.56-12.77-26.06-19.73-43.29-20.51   c-17.53-0.8-32.91,4.82-45.62,16.91C195.27,165.71,188.68,180.86,188.64,202.08z" fill="#E60012"></path>
</g>
</svg>