<svg xmlns="http://www.w3.org/2000/svg" xmlns:xlink="http://www.w3.org/1999/xlink" version="1.1" id="Layer_1" x="0px" y="0px" viewBox="0 0 500 500" style="enable-background:new 0 0 500 500;" xml:space="preserve" class="style-svg svg image-fluid replaced-svg svg-replaced-2" width="500"  height="500" >
<style type="text/css" fill="#E60012">
	.st0{display:none;}
	.st1{display:inline;}
	.st2{display:inline;fill:#FFFFFF;}
</style>
<g class="st0" fill="#E60012">
	<path class="st1" d="M239.33,47.84c7.64,0,15.28,0,22.92,0c0.11,0.1,0.22,0.28,0.34,0.3c3.07,0.36,6.18,0.56,9.22,1.09   c4.97,0.87,9.99,1.66,14.84,3.01c5.75,1.61,11.38,3.68,16.99,5.73c7.74,2.83,14.91,6.81,21.86,11.2   c6.55,4.14,12.86,8.62,18.41,14.05c5.06,4.96,10.21,9.87,14.79,15.26c3.98,4.68,7.42,9.86,10.75,15.04   c5.29,8.24,9.55,17.03,12.78,26.28c2.28,6.53,4.38,13.13,5.41,20c0.95,6.27,2.31,12.54,2.56,18.84c0.33,8.29,0.69,16.65-0.86,24.92   c-0.9,4.81-1.3,9.74-2.46,14.48c-1.56,6.38-3.28,12.77-5.58,18.91c-2.22,5.89-5.13,11.54-8,17.17c-2.74,5.39-5.78,10.62-8.76,15.89   c-3.41,6.04-6.89,12.03-10.33,18.06c-2.54,4.45-5.04,8.92-7.58,13.36c-2.84,4.97-5.72,9.91-8.57,14.88   c-2.77,4.82-5.52,9.65-8.29,14.47c-3.29,5.72-6.61,11.44-9.9,17.16c-2.47,4.3-4.89,8.62-7.36,12.91   c-3.24,5.63-6.5,11.24-9.74,16.87c-3.16,5.49-6.28,10.99-9.44,16.47c-3.16,5.48-6.37,10.94-9.52,16.43   c-2.9,5.06-5.74,10.16-8.64,15.22c-3.23,5.63-6.58,11.2-9.74,16.87c-3.37,6.05-8.1,9.69-15.31,9.41c-5.58-0.22-9.84-2.77-12.68-7.5   c-3.23-5.38-6.22-10.9-9.36-16.33c-4.34-7.52-8.75-15-13.07-22.53c-4.3-7.49-8.51-15.05-12.81-22.54   c-4.99-8.69-10.06-17.33-15.06-26.01c-3.21-5.58-6.33-11.21-9.53-16.8c-4.13-7.21-8.33-14.38-12.46-21.59   c-4.19-7.31-8.32-14.65-12.51-21.95c-5.48-9.55-11.11-19.01-16.45-28.63c-4.6-8.28-8.97-16.69-13.25-25.14   c-1.7-3.37-3.08-6.94-4.24-10.54c-2.36-7.37-4.57-14.81-5.47-22.54c-0.6-5.16-1.11-10.34-1.68-15.5c-0.05-0.46-0.22-0.9-0.33-1.35   c0-3.93,0-7.87,0-11.8c0.11-0.23,0.31-0.45,0.33-0.68c0.24-3.21,0.33-6.44,0.72-9.64c0.57-4.59,1.08-9.22,2.1-13.72   c1.71-7.48,3.94-14.82,6.81-21.98c3.56-8.87,7.95-17.27,13.2-25.22c3.99-6.05,8.26-11.91,13.4-17.05   c4.98-4.98,9.92-10.05,15.33-14.54c4.81-3.99,10.03-7.58,15.43-10.74c6.2-3.63,12.65-6.92,19.26-9.76   c5.67-2.43,11.61-4.36,17.59-5.89c6.21-1.6,12.61-2.47,18.93-3.63C235.99,48.23,237.66,48.07,239.33,47.84z M188.64,202.08   c-0.49,13.67,7.58,29.59,16.76,39.25c11.2,11.79,24.95,18.51,41.17,19.58c18.66,1.23,34.89-4.87,48.19-17.97   c11.37-11.2,17.54-25.09,18.32-41.03c0.83-17.04-4.53-32.15-16.02-44.83c-11.56-12.77-26.06-19.73-43.29-20.51   c-17.53-0.8-32.91,4.82-45.62,16.91C195.27,165.71,188.68,180.86,188.64,202.08z" fill="#E60012"></path>
</g>
<g class="st0" fill="#E60012">
	<path class="st1" d="M49.73,132.06c4.74-6.29,9.38-12.65,14.25-18.84c15.43-19.62,31.13-39.01,49.13-56.38   c2.38-2.3,4.86-4.52,7.46-6.56c2.95-2.31,3.88-2.29,6.45,0.4c2.72,2.85,5.33,5.84,7.65,9.01c12.35,16.92,23.2,34.8,33.37,53.08   c5.94,10.68,11.47,21.59,16.96,32.51c2.52,5.02,2.15,6.73-2.06,10.59c-6.92,6.35-14.14,12.37-21.07,18.71   c-4.83,4.41-9.41,9.1-14.07,13.71c-2.63,2.6-3.25,5.67-2.49,9.33c2.46,11.75,6.99,22.75,11.99,33.57   c16.35,35.41,38.95,66.15,68.91,91.28c16,13.41,33.62,24.02,53.7,30.16c7.86,2.4,15.83,4.25,24.15,4.17   c4.32-0.04,8.01-1.25,11.17-4.27c8.33-7.97,16.69-15.91,25.14-23.75c2.48-2.3,5.27-4.27,7.95-6.34c2.34-1.81,4.86-2.12,7.51-0.68   c7.76,4.22,15.64,8.23,23.24,12.72c19.37,11.44,38.33,23.55,56.43,36.94c3.74,2.77,7.3,5.79,10.79,8.86   c0.8,0.71,1.22,2.06,1.44,3.19c0.8,4.17-0.92,7.14-4.05,10.01c-12.36,11.34-25.65,21.51-39.24,31.28   c-10.76,7.74-21.9,14.94-32.77,22.54c-6.9,4.82-14.5,5.69-22.58,5c-30.41-2.6-58.05-13.45-84.38-28.19   c-28.82-16.13-54.7-36.25-79-58.49c-22.93-20.99-44.31-43.45-63.71-67.75c-21.19-26.56-39.71-54.83-53.91-85.78   c-7.61-16.59-13.76-33.71-17.93-51.52c-0.08-0.36-0.3-0.69-0.46-1.03C49.73,150.39,49.73,141.22,49.73,132.06z" fill="#E60012"></path>
	<path class="st1" d="M447.79,241.63c-5.05,0.75-9.96,1.5-14.87,2.2c-4.37,0.62-8.75,1.17-13.13,1.75   c-3.47,0.46-3.73,0.25-3.76-3.14c-0.28-26.88-6.87-52.24-19.87-75.66c-19.21-34.61-47.28-59.33-84.6-73.2   c-17.75-6.6-36-10.51-55.02-10.37c-2.87,0.02-3.32-0.4-2.97-3.15c1.23-9.62,2.59-19.23,3.85-28.84c0.27-2.08,1.35-2.68,3.36-2.62   c14.88,0.48,29.55,2.55,43.92,6.4c53.35,14.31,93.37,46.04,121.07,93.51c11.28,19.33,18.15,40.36,21.87,62.4   c0.49,2.92,0.15,5.99,0.16,8.99C447.8,227.08,447.79,234.26,447.79,241.63z" fill="#E60012"></path>
	<path class="st1" d="M364.65,242.88c0,2.84-0.09,5.69,0.04,8.52c0.07,1.62-0.55,2.22-2.08,2.42c-7.04,0.91-14.06,1.89-21.09,2.87   c-2.81,0.39-5.62,0.77-8.4,1.33c-1.75,0.35-2.54-0.18-2.58-1.94c-0.08-3.47-0.05-6.95-0.28-10.41c-0.48-6.91,0-14.13-1.86-20.66   c-7.32-25.62-23.55-43.41-48.8-52.67c-6.46-2.37-13.04-3.5-19.92-3.38c-5.52,0.1-11.04-0.24-16.56-0.32   c-1.76-0.03-2.08-0.84-1.85-2.41c1.45-9.99,2.87-19.98,4.24-29.97c0.22-1.63,1.21-1.73,2.49-1.81c27.9-1.62,53.17,5.68,75.21,22.97   c21.94,17.22,35.33,39.76,40.14,67.29c0.53,3.03,0.83,6.11,1,9.17c0.17,2.99,0.04,5.99,0.04,8.99   C364.45,242.88,364.55,242.88,364.65,242.88z" fill="#E60012"></path>
</g>
<g class="st0" fill="#E60012">
	<path class="st1" d="M450.96,251.94c0.86,110.32-91.6,204.41-207.41,200.88c-105.77-3.23-194.81-90.3-194.65-201.47   c0.16-111.06,90.69-201.36,202.29-200.7C363.74,51.31,451.92,143.83,450.96,251.94z M237.32,76.69   C149.97,81.56,79.02,155.82,75,239.21c8,0,15.99,0,23.96,0c0,8.53,0,16.76,0,25.2c-8.14,0-16.06,0-24,0   c4.61,86.62,78.57,158.4,162.47,162.42c0-8,0-15.99,0-24.06c8.52,0,16.74,0,25.26,0c0,8.2,0,16.19,0,24.47   c48.66-4.47,89.09-24.56,120.83-61.33c25.09-29.07,38.73-63.04,41.87-101.68c-8.42,0-16.4,0-24.43,0c0-8.47,0-16.63,0-25.09   c8.16,0,16.15,0,24.47,0c-3.9-44.62-21.32-82.59-53.24-113.56c-30.43-29.52-67.07-45.63-109.67-49.21c0,8.39,0,16.37,0,24.33   c-8.53,0-16.76,0-25.19,0C237.32,92.56,237.32,84.63,237.32,76.69z" fill="#E60012"></path>
	<path class="st2" d="M250.03,277.03c1.82-0.24,3.67-0.33,5.45-0.73c15.76-3.56,22.2-19.49,18.81-29.34   c-0.59-1.73,0.41-2.19,1.54-2.84c13.05-7.51,26.09-15.05,39.13-22.57c8.26-4.77,16.53-9.51,24.77-14.32   c3.59-2.09,4.67-5.77,2.75-8.94c-1.96-3.24-5.61-3.94-9.43-1.73c-21.08,12.17-42.16,24.34-63.21,36.57   c-1.38,0.8-2.15,0.75-3.42-0.29c-8.11-6.62-17.01-8.23-26.63-3.59c-1.47,0.71-2.49,0.7-3.89-0.12   c-10.4-6.08-20.84-12.08-31.28-18.1c-11.66-6.74-23.3-13.51-34.99-20.19c-6.51-3.73-14.13-1.75-17.63,4.45   c-3.52,6.24-1.35,13.63,5.23,17.43c21.79,12.61,43.6,25.2,65.42,37.76c1.39,0.8,2.14,1.61,2.33,3.4   C226.48,267.37,236.9,276.86,250.03,277.03z" fill="#FFFFFF"></path>
	<path class="st1" d="M250.03,277.03c-13.13-0.17-23.55-9.66-25.05-23.17c-0.2-1.79-0.94-2.6-2.33-3.4   c-21.82-12.56-43.63-25.15-65.42-37.76c-6.57-3.8-8.75-11.19-5.23-17.43c3.5-6.19,11.11-8.17,17.63-4.45   c11.69,6.69,23.33,13.46,34.99,20.19c10.43,6.02,20.88,12.02,31.28,18.1c1.4,0.82,2.42,0.83,3.89,0.12   c9.63-4.64,18.53-3.03,26.63,3.59c1.28,1.04,2.05,1.09,3.42,0.29c21.05-12.23,42.13-24.4,63.21-36.57   c3.82-2.21,7.48-1.51,9.43,1.73c1.92,3.17,0.84,6.85-2.75,8.94c-8.24,4.81-16.51,9.55-24.77,14.32   c-13.04,7.53-26.08,15.06-39.13,22.57c-1.13,0.65-2.13,1.11-1.54,2.84c3.38,9.85-3.06,25.78-18.81,29.34   C253.7,276.7,251.85,276.8,250.03,277.03z" fill="#E60012"></path>
</g>
<g fill="#E60012">
	<path d="M49.83,99.21c134.26,0,267.87,0,402.07,0c0,100.55,0,200.69,0,301.57c-133.85,0-267.67,0-402.07,0   C49.83,300.58,49.83,200.43,49.83,99.21z M406.28,125.47c-104.36,0-206.92,0-310.81,0c2.96,3.19,4.85,5.36,6.88,7.39   c44.28,44.3,88.56,88.6,132.86,132.87c12.84,12.83,18.64,12.8,31.57-0.12c44.3-44.27,88.58-88.57,132.86-132.87   C401.63,130.73,403.46,128.56,406.28,125.47z M96.98,374.87c102.85,0,205.39,0,307.09,0c-34.66-34.63-69.39-69.33-104.4-104.31   c-14.26,12.36-25.55,31.31-49.08,31.22c-23.41-0.09-34.43-19.51-49.03-31.53C166.46,305.37,131.87,339.97,96.98,374.87z    M76.49,352.79c34.81-34.82,69.33-69.35,102.22-102.26c-33.79-33.79-68.28-68.28-102.22-102.23   C76.49,215.72,76.49,284.57,76.49,352.79z M425.33,352.86c0-68.29,0-137.23,0-205.64c-34.71,34.71-69.35,69.35-102.83,102.83   C356.33,283.88,390.82,318.36,425.33,352.86z" fill="#E60012"></path>
</g>
</svg>